<svg xmlns="http://www.w3.org/2000/svg" width="168" height="35" viewBox="0 0 168 35" fill="none">
  <path d="M7.22851 28.1912H0V1.0493H5.57293C9.6069 1.0493 11.3091 1.35242 12.918 2.3784C14.8767 3.63756 15.996 5.75951 15.996 8.30115C15.996 10.8428 15.1565 12.2652 12.988 13.4077C16.439 14.8301 17.6282 16.9054 17.6282 20.1233C17.6282 25.0666 14.2238 28.1912 7.22851 28.1912ZM7.08858 5.96937H5.0366V11.519H6.64557C9.70019 11.519 10.9826 10.6796 10.9826 8.72088C10.9826 6.85546 9.70017 5.96937 7.08858 5.96937ZM7.41506 16.439H5.0366V23.3877H7.53165C11.0526 23.3877 12.5683 22.3618 12.5683 20.0067C12.5683 17.5816 10.9127 16.439 7.41506 16.439Z" fill="#D85111" />
  <path d="M19.5636 28.1912V7.83479H24.4603V28.1912H19.5636ZM19.6102 4.89673V0H24.507V4.89673H19.6102Z" fill="#D85111" />
  <path d="M37.4483 28.6809C31.4323 28.6809 26.5823 23.9474 26.5823 18.0247C26.5823 12.032 31.2925 7.36844 37.3085 7.36844C41.9487 7.36844 45.9827 9.98002 47.5683 14.6436H42.0653C41.0626 12.7782 39.5236 11.8454 37.3317 11.8454C33.9507 11.8454 31.5256 14.4104 31.5256 17.978C31.5256 21.5456 34.0672 24.1805 37.4483 24.1805C39.477 24.1805 40.8761 23.3644 42.0886 21.499H47.5916C45.866 26.0693 42.2051 28.6809 37.4483 28.6809Z" fill="#D85111" />
  <path d="M59.7635 28.6809C53.8174 28.6809 48.9673 23.9007 48.9673 18.0247C48.9673 12.1719 53.8174 7.36844 59.7401 7.36844C65.8727 7.36844 70.6062 12.102 70.6062 18.1646C70.5829 23.9008 65.6628 28.6809 59.7635 28.6809ZM59.7635 11.8454C56.5689 11.8454 53.8873 14.5969 53.8873 17.9547C53.8873 21.4524 56.499 24.2039 59.8101 24.2039C63.0513 24.2039 65.6861 21.4524 65.6861 18.0247C65.6628 14.6436 63.0279 11.8454 59.7635 11.8454Z" fill="#D85111" />
  <path d="M85.7161 28.1912V18.2345C85.7161 12.8014 84.2471 11.8454 81.8221 11.8454C80.2831 11.8454 79.0006 12.4983 78.2311 13.7109C77.6016 14.7135 77.415 15.8794 77.415 18.6076V28.1912H72.5183V7.83479H77.0419V9.79346C78.8374 8.06795 80.4696 7.36844 82.7781 7.36844C85.5995 7.36844 87.8147 8.39439 89.1439 10.3064C90.2398 11.8921 90.6128 13.6409 90.6128 17.2785V28.1912H85.7161Z" fill="#D85111" />
  <path d="M103.344 28.6809C97.3983 28.6809 92.5482 23.9007 92.5482 18.0247C92.5482 12.1719 97.3983 7.36844 103.321 7.36844C109.454 7.36844 114.187 12.102 114.187 18.1646C114.164 23.9008 109.244 28.6809 103.344 28.6809ZM103.344 11.8454C100.15 11.8454 97.4683 14.5969 97.4683 17.9547C97.4683 21.4524 100.08 24.2039 103.391 24.2039C106.632 24.2039 109.267 21.4524 109.267 18.0247C109.244 14.6436 106.609 11.8454 103.344 11.8454Z" fill="#D85111" />
  <path d="M141.749 28.1912V17.022C141.749 12.9414 140.21 11.8454 137.925 11.8454C135.196 11.8454 133.821 13.3145 133.821 18.1646V28.1912H128.924V17.022C128.924 13.0113 127.525 11.8454 124.96 11.8454C122.138 11.8454 120.996 13.3611 120.996 18.1646V28.1912H116.099V7.83479H120.576V9.74684C121.999 8.02133 123.468 7.36844 125.869 7.36844C128.667 7.36844 130.463 8.32443 131.862 10.5396C133.518 8.32443 135.546 7.36844 138.391 7.36844C143.754 7.36844 146.622 10.3531 146.622 16.439V28.1912H141.749Z" fill="#D85111" />
  <path d="M155.53 35H150.283L154.107 26.3025L146.645 7.85808H152.218L156.742 21.056L161.662 7.85808H167.282L155.53 35Z" fill="#D85111" />
</svg>