<svg width="39" height="51" viewBox="0 0 39 51" fill="none" xmlns="http://www.w3.org/2000/svg">
<path d="M29.8754 21.0534C31.266 18.945 32.0032 16.473 31.9946 13.9473C31.993 10.5043 30.6246 7.20279 28.19 4.76822C25.7554 2.33366 22.4539 0.965204 19.0109 0.963562L6.98922 0.963562C5.14132 0.966838 3.37003 1.70237 2.06336 3.00904C0.75669 4.31571 0.0211597 6.08699 0.0178833 7.9349L0.017883 50.9636L22.0163 50.9636C25.5495 50.9638 28.9832 49.7937 31.7811 47.6362C34.579 45.4787 36.5835 42.4552 37.4815 39.0381C38.3794 35.6209 38.1203 32.0026 36.7445 28.7483C35.3687 25.494 32.9537 22.7871 29.8769 21.0503L29.8754 21.0534ZM11.8087 2.89694L19.0109 2.89694C21.9416 2.89694 24.7523 4.06118 26.8247 6.13352C28.897 8.20586 30.0613 11.0166 30.0613 13.9473C30.0613 16.878 28.897 19.6887 26.8247 21.7611C24.7523 23.8334 21.9416 24.9976 19.0109 24.9976L13.9683 24.9976L13.9683 7.9349C13.9683 7.81252 13.9683 7.69168 13.959 7.57085C13.959 7.53057 13.959 7.49029 13.9497 7.45001C13.9497 7.37151 13.9435 7.29251 13.9311 7.21299C13.9311 7.16341 13.9187 7.11539 13.9125 7.06736C13.9063 7.01934 13.897 6.92793 13.8862 6.85977L13.8583 6.70485C13.8459 6.63978 13.8351 6.57472 13.8227 6.5112C13.8103 6.44768 13.7979 6.40585 13.7855 6.35628C13.7731 6.30671 13.7576 6.2339 13.7421 6.17348C13.7266 6.11306 13.7127 6.06658 13.6972 6.01856C13.6817 5.97053 13.6631 5.90082 13.6445 5.84195C13.6259 5.78308 13.6089 5.7366 13.5919 5.68703C13.5748 5.63746 13.5531 5.57395 13.5314 5.51817C13.5098 5.4624 13.4912 5.41283 13.471 5.36326C13.4509 5.31368 13.4261 5.25326 13.4029 5.19904C13.3796 5.14482 13.3579 5.0968 13.3347 5.04412L13.2603 4.88921L13.1829 4.73429C13.1565 4.68316 13.1287 4.63204 13.1008 4.57937C13.0729 4.5267 13.045 4.48177 13.0171 4.43219L12.9288 4.27727C12.8994 4.22925 12.8668 4.18123 12.8359 4.1332L12.7429 3.99222L12.6422 3.8528C12.6097 3.80632 12.5771 3.7614 12.5431 3.71647L12.4362 3.58169L12.3308 3.45156L12.2162 3.31988C12.179 3.2796 12.1434 3.23777 12.1046 3.19749C12.0659 3.15721 12.0256 3.11228 11.9854 3.07045L11.8692 2.95426L11.8087 2.89694ZM24.8219 48.7529C23.8964 48.9406 22.9545 49.0351 22.0101 49.0348L1.95127 49.0348L1.95127 7.9349C1.97444 6.61303 2.51582 5.35313 3.45882 4.42651C4.40183 3.49989 5.67102 2.98068 6.9931 2.98068C8.31517 2.98068 9.58437 3.49989 10.5274 4.42651C11.4704 5.35313 12.0118 6.61303 12.0349 7.9349L12.0349 26.9279L19.0063 26.9279C21.2858 26.9274 23.525 26.3269 25.4989 25.1866C25.6647 25.0906 25.8273 24.9914 25.9869 24.8877L26.1418 24.7885C26.2503 24.7172 26.3587 24.6444 26.4656 24.5685C26.5229 24.5282 26.5802 24.488 26.636 24.4461C26.7352 24.3749 26.8343 24.3005 26.9319 24.2261L27.0977 24.096C27.1984 24.017 27.296 23.9411 27.3951 23.8512L27.5361 23.732C27.6616 23.622 27.7855 23.5089 27.9063 23.3958L27.9575 23.3493C28.0953 23.2176 28.2301 23.0829 28.3618 22.9465C28.399 22.9062 28.4346 22.866 28.4718 22.8272C28.5415 22.7529 28.6128 22.6723 28.6825 22.601C31.2238 23.9714 33.2814 26.0911 34.5758 28.6719C35.8702 31.2527 36.3385 34.1695 35.9171 37.0258C35.4957 39.8821 34.205 42.5394 32.2204 44.6364C30.2359 46.7335 27.6538 48.1686 24.825 48.7467L24.8219 48.7529Z" fill="#D85111"/>
</svg>
